<svg width="24" height="25" viewBox="0 0 24 25" fill="none" xmlns="http://www.w3.org/2000/svg">
<path fill-rule="evenodd" clip-rule="evenodd" d="M19.3259 7.7534C19.5675 6.27549 19.6496 3.94999 18.7473 2.18259C11.2053 -2.97577 2.20658 1.72335 0.445312 8.84111C1.28126 7.08232 3.83164 4.91104 6.87568 3.86259C10.6669 2.55665 15.9226 3.09619 19.3259 7.7534Z" fill="#6466F1"/>
<path fill-rule="evenodd" clip-rule="evenodd" d="M12 20.2394C13.157 21.1908 15.1264 22.4296 17.1078 22.5369C25.3566 18.6059 25.8125 8.46444 20.5419 3.36658C21.643 4.97267 22.2397 8.26848 21.6176 11.4273C20.8426 15.3618 17.7367 19.6356 12 20.2394Z" fill="#6466F1"/>
<path fill-rule="evenodd" clip-rule="evenodd" d="M4.54033 7.92621C3.14387 8.4673 1.09798 9.57556 0.0318811 11.2494C-0.59046 20.3654 8.02219 25.7394 15.0502 23.6487C13.1105 23.8199 9.94605 22.7225 7.49916 20.6305C4.45116 18.0244 2.25165 13.2207 4.54033 7.92621Z" fill="#6466F1"/>
</svg>
